<?xml version="1.0" encoding="UTF-8"?>
<svg width="105px" height="38px" viewBox="0 0 105 38" version="1.1" xmlns="http://www.w3.org/2000/svg" xmlns:xlink="http://www.w3.org/1999/xlink">
    <!-- Generator: Sketch 41.2 (35397) - http://www.bohemiancoding.com/sketch -->
    <title>kd_logo</title>
    <desc>Created with Sketch.</desc>
    <defs></defs>
    <g id="Symbols" stroke="none" stroke-width="1" fill="none" fill-rule="evenodd">
        <g id="footer-mobile" transform="translate(-187.000000, -273.000000)" fill="#FFFFFF">
            <g id="footer">
                <g id="kd_logo" transform="translate(187.000000, 273.000000)">
                    <g id="strek">
                        <polygon id="Shape" points="28.4939547 19.5891195 27.8512339 19.5891195 26.1373118 17.2777719 25.6445592 17.723726 25.6445592 19.5945579 25.1089585 19.5945579 25.1089585 14.8304626 25.6445592 14.8304626 25.6445592 17.1961949 27.7869618 14.8304626 28.4350386 14.8304626 26.5443683 16.9025178"></polygon>
                        <path d="M29.5598,16.016048 L29.5598,18.3328341 C29.5419559,18.5680198 29.6127944,18.8013031 29.7579722,18.9854499 C29.9234073,19.14372 30.1474582,19.2228505 30.3739129,19.2029885 C30.6749459,19.2305842 30.9721525,19.118665 31.1826699,18.8984344 C31.3790648,18.6047822 31.469853,18.251403 31.4397582,17.8977569 L31.4397582,16.016048 L31.9753589,16.016048 L31.9753589,19.5891195 L31.5361664,19.5891195 L31.4611823,19.1105346 L31.4344022,19.1105346 C31.3237786,19.2862218 31.1657503,19.4259175 30.9791417,19.512981 C30.7710126,19.6101153 30.5440228,19.6584426 30.3149969,19.6543811 C29.9661507,19.6823951 29.6202945,19.5711878 29.3509157,19.3443886 C29.1147849,19.0730852 28.9986191,18.7152908 29.0295553,18.3545879 L29.0295553,16.016048 L29.565156,16.016048 L29.5598,16.016048 Z" id="Shape"></path>
                        <path d="M35.5049672,19.5891195 L35.5049672,17.2777719 C35.5222723,17.0426475 35.4514934,16.8095603 35.3067949,16.6251561 C35.1413598,16.4668859 34.9173089,16.3877554 34.6908542,16.4076175 C34.3900295,16.381593 34.0934657,16.4932702 33.8820972,16.7121715 C33.6848879,17.005448 33.5940227,17.3591269 33.6250089,17.7128491 L33.6250089,19.5891195 L33.0894082,19.5891195 L33.0894082,16.016048 L33.5232448,16.016048 L33.6089409,16.5055098 L33.6089409,16.5055098 C33.7202132,16.3270144 33.8802676,16.1852831 34.0695574,16.097625 C34.2752633,15.9983397 34.5005988,15.9481143 34.7283462,15.9507864 C35.0754574,15.9236353 35.419336,16.0348244 35.6870714,16.2607789 C35.9240502,16.5337522 36.0402324,16.8935636 36.0084318,17.256018 L36.0084318,19.5891195 L35.4728311,19.5891195 L35.5049672,19.5891195 Z" id="Shape"></path>
                        <path d="M39.5433961,19.5891195 L39.5433961,17.2777719 C39.5607012,17.0426475 39.4899223,16.8095603 39.3452239,16.6251561 C39.1797887,16.4668859 38.9557378,16.3877554 38.7292831,16.4076175 C38.4284584,16.381593 38.1318946,16.4932702 37.9205261,16.7121715 C37.7233168,17.005448 37.6324516,17.3591269 37.6634378,17.7128491 L37.6634378,19.5891195 L37.1278372,19.5891195 L37.1278372,16.016048 L37.5563177,16.016048 L37.6420138,16.5055098 L37.6420138,16.5055098 C37.7532862,16.3270144 37.9133405,16.1852831 38.1026303,16.097625 C38.3083362,15.9983397 38.5336717,15.9481143 38.7614191,15.9507864 C39.1085303,15.9236353 39.4524089,16.0348244 39.7201443,16.2607789 C39.9571231,16.5337522 40.0733053,16.8935636 40.0415047,17.256018 L40.0415047,19.5891195 L39.505904,19.5891195 L39.5433961,19.5891195 Z" id="Shape"></path>
                        <path d="M43.4479248,18.6373881 C43.4631018,18.9408151 43.3260427,19.231433 43.0837164,19.4096501 C42.7778114,19.6082808 42.4178264,19.7034702 42.0553631,19.6815734 C41.6856164,19.6985209 41.3175176,19.6218989 40.9841618,19.4585963 L40.9841618,18.9256268 C41.1547499,19.0141157 41.3343491,19.0834142 41.5197625,19.1322884 C41.6946617,19.1792916 41.874476,19.2048532 42.0553631,19.2084269 C42.2776385,19.2211194 42.4992924,19.1742306 42.6980839,19.0724653 C42.8294932,18.9936875 42.9139475,18.8539383 42.9236002,18.6992965 C42.9332528,18.5446548 42.8668505,18.395197 42.746288,18.3002033 C42.5315292,18.1500381 42.2971731,18.031056 42.0500071,17.9467031 C41.8075396,17.8623847 41.5742258,17.7530436 41.3537263,17.6203952 C41.2274051,17.5412413 41.1210317,17.4332301 41.0430779,17.3049642 C40.9730158,17.1770773 40.9378825,17.0325032 40.9413138,16.8862024 C40.9321802,16.6103926 41.0637834,16.3493015 41.2894542,16.1955173 C41.5751393,16.0117616 41.91064,15.9242162 42.2481794,15.9453479 C42.631342,15.9454138 43.0104489,16.0249935 43.3622287,16.1792019 L43.1747685,16.6197176 C42.8724763,16.4829098 42.5468425,16.407175 42.2160433,16.3967405 C42.0179078,16.3837983 41.8199848,16.4251193 41.6429506,16.5163868 C41.52342,16.58248 41.4493408,16.7099355 41.4501344,16.8481331 C41.448195,16.9358277 41.4745255,17.0217645 41.5251185,17.092864 C41.5879799,17.1719219 41.6664283,17.2367582 41.7554268,17.2832103 C41.9566667,17.3855121 42.1641965,17.4745252 42.3767235,17.5496951 C42.688127,17.6432714 42.9765199,17.8026615 43.2229726,18.0174031 C43.3801375,18.1829691 43.4617361,18.407861 43.4479248,18.6373881 L43.4479248,18.6373881 Z" id="Shape"></path>
                        <path d="M44.8404865,17.7563568 C44.9716415,17.5673649 45.1128947,17.3858107 45.263611,17.2125103 L46.3990844,15.9888557 L47.0310932,15.9888557 L45.5903274,17.5496951 L47.1167893,19.5999964 L46.4687125,19.5999964 L45.226119,17.9086338 L44.8244185,18.262134 L44.8244185,19.5999964 L44.2888179,19.5999964 L44.2888179,14.5150316 L44.8244185,14.5150316 L44.8244185,17.2070718 L44.8244185,17.7509183 L44.8244185,17.7509183 L44.8404865,17.7563568 Z" id="Shape"></path>
                        <path d="M49.9286927,19.5891195 L49.8215726,19.0779038 L49.8215726,19.0779038 C49.6814493,19.2713501 49.4978121,19.4279801 49.2859719,19.5347348 C49.0787402,19.6203757 48.8561783,19.6611277 48.6325391,19.6543811 C48.3353614,19.6721027 48.0425911,19.5749532 47.8130702,19.3824578 C47.6081993,19.1790368 47.5006669,18.8951483 47.5184898,18.6047573 C47.5184898,17.8796287 48.0880118,17.5007489 49.2270559,17.4681181 L49.8269286,17.4681181 L49.8269286,17.2233872 C49.8447588,17.0017223 49.7818683,16.7811192 49.6501804,16.6034022 C49.4979345,16.4570547 49.2913096,16.3838206 49.0824437,16.402179 C48.734505,16.4159127 48.3940498,16.5088419 48.0862265,16.6741022 L47.9201903,16.2607789 C48.0997897,16.1632605 48.2904468,16.0883804 48.487927,16.0378018 C48.6907747,15.9839344 48.8995537,15.9565214 49.1092237,15.9562249 C49.4438011,15.9285416 49.7764142,16.0294736 50.0411689,16.239025 C50.2644467,16.4845465 50.375307,16.8143482 50.3464612,17.1472487 L50.3464612,19.5891195 L49.9286927,19.5891195 L49.9286927,19.5891195 Z M48.7235913,19.2084269 C49.0103327,19.2261826 49.2920817,19.1262482 49.5055682,18.9310652 C49.7035661,18.7238225 49.8065888,18.441576 49.7894366,18.1533647 L49.7894366,17.8324953 L49.2538359,17.8324953 C48.9369525,17.8227448 48.622528,17.8918256 48.3379588,18.0337185 C48.1546409,18.1500952 48.0479917,18.3583473 48.0594464,18.577565 C48.0469519,18.7460224 48.1122634,18.9108101 48.2361947,19.0235191 C48.3745397,19.1341929 48.5476905,19.1902224 48.7235913,19.1812346 L48.7235913,19.2084269 Z" id="Shape"></path>
                        <path d="M53.0887366,19.6543811 C52.8731021,19.6564688 52.6594948,19.6119773 52.4620838,19.5238579 C52.2714413,19.4366004 52.1069673,19.2996179 51.9853992,19.12685 L51.9479072,19.12685 C51.9724263,19.3234739 51.9849475,19.5214493 51.9853992,19.7196426 L51.9853992,21.1934667 L51.4497986,21.1934667 L51.4497986,16.016048 L51.8836351,16.016048 L51.9586192,16.5055098 L51.9586192,16.5055098 C52.0785424,16.3244794 52.2428285,16.1782817 52.4353038,16.0813096 C52.6320291,15.9910228 52.846112,15.9464323 53.0619565,15.9507864 C53.4744272,15.9304333 53.871935,16.1100476 54.1331578,16.4348098 C54.6397435,17.2682427 54.6397435,18.3206093 54.1331578,19.1540423 C53.8809333,19.477107 53.4946781,19.6621458 53.0887366,19.6543811 L53.0887366,19.6543811 Z M53.0137525,16.3913021 C52.7206671,16.3640655 52.4317458,16.4765907 52.2317755,16.6958561 C52.0473326,16.9823771 51.9607637,17.3225185 51.9853992,17.6639029 L51.9853992,17.7835491 C51.9512108,18.1635131 52.0375375,18.544625 52.2317755,18.8712421 C52.4294014,19.1024816 52.7240454,19.2237709 53.0244645,19.19755 C53.3098751,19.2060944 53.5793371,19.0641461 53.7368134,18.8222959 C53.924529,18.5126464 54.0142554,18.1520113 53.9939017,17.7889876 C54.0174339,17.4273775 53.9274235,17.0675051 53.7368134,16.7611177 C53.5637347,16.5197359 53.280262,16.3860973 52.9869724,16.4076175 L53.0137525,16.3913021 Z" id="Shape"></path>
                        <path d="M57.7270382,18.6373881 C57.7422152,18.9408151 57.6051561,19.231433 57.3628298,19.4096501 C57.0569248,19.6082808 56.6969398,19.7034702 56.3344765,19.6815734 C55.9647297,19.6985209 55.596631,19.6218989 55.2632752,19.4585963 L55.2632752,18.9256268 C55.4338632,19.0141157 55.6134625,19.0834142 55.7988759,19.1322884 C55.973775,19.1792916 56.1535894,19.2048532 56.3344765,19.2084269 C56.5567519,19.2211194 56.7784057,19.1742306 56.9771973,19.0724653 C57.1086065,18.9936875 57.1930609,18.8539383 57.2027135,18.6992965 C57.2123662,18.5446548 57.1459639,18.395197 57.0254014,18.3002033 C56.8106426,18.1500381 56.5762865,18.031056 56.3291205,17.9467031 C56.086653,17.8623847 55.8533392,17.7530436 55.6328397,17.6203952 C55.5065185,17.5412413 55.400145,17.4332301 55.3221913,17.3049642 C55.2521292,17.1770773 55.2169959,17.0325032 55.2204272,16.8862024 C55.2112936,16.6103926 55.3428968,16.3493015 55.5685676,16.1955173 C55.8542526,16.0117616 56.1897534,15.9242162 56.5272927,15.9453479 C56.9104554,15.9454138 57.2895623,16.0249935 57.6413421,16.1792019 L57.4538819,16.6197176 C57.1515896,16.4829098 56.8259559,16.407175 56.4951567,16.3967405 C56.2970212,16.3837983 56.0990982,16.4251193 55.922064,16.5163868 C55.8025333,16.58248 55.7284542,16.7099355 55.7292478,16.8481331 C55.7273083,16.9358277 55.7536388,17.0217645 55.8042319,17.092864 C55.8670932,17.1719219 55.9455416,17.2367582 56.0345401,17.2832103 C56.234041,17.385298 56.4397756,17.4743084 56.6504809,17.5496951 C56.9618844,17.6432714 57.2502772,17.8026615 57.4967299,18.0174031 C57.6558487,18.1820475 57.7394328,18.4070541 57.7270382,18.6373881 L57.7270382,18.6373881 Z" id="Shape"></path>
                        <path d="M60.9942022,19.1105346 L60.9620661,19.1105346 C60.7127315,19.4746373 60.294708,19.6806854 59.8587288,19.6543811 C59.4473369,19.675178 59.0503648,19.4978212 58.7875275,19.1757961 C58.5075239,18.7796837 58.3712584,18.2973337 58.401895,17.8107414 C58.3739974,17.3210689 58.5098933,16.8361939 58.7875275,16.4348098 C59.0471124,16.1073002 59.4451667,15.925418 59.8587288,15.9453479 C60.2918014,15.9261658 60.7050118,16.1308351 60.9567101,16.4891944 L60.9995582,16.4891944 L60.9995582,16.2335866 L60.9995582,15.9834172 L60.9995582,14.5150316 L61.5351588,14.5150316 L61.5351588,19.5891195 L61.1013223,19.5891195 L60.9942022,19.1105346 Z M59.9230009,19.2029885 C60.2183897,19.2317256 60.5104711,19.1215108 60.7156898,18.9038729 C60.9039571,18.6170447 60.9908165,18.2738444 60.9620661,17.9303877 L60.9620661,17.8107414 C60.995877,17.4308034 60.909577,17.0498096 60.7156898,16.7230484 C60.5175465,16.4925451 60.2232865,16.3714139 59.9230009,16.3967405 C59.6362889,16.3829231 59.3635977,16.5234341 59.205296,16.7665561 C59.0226556,17.0819633 58.9368696,17.4455389 58.9589197,17.8107414 C58.934662,18.1726893 59.0206798,18.5334499 59.205296,18.8440498 C59.3736894,19.0715634 59.6432112,19.1981873 59.9230009,19.1812346 L59.9230009,19.2029885 Z" id="Shape"></path>
                        <path d="M64.116754,19.6543811 C63.6567808,19.6798018 63.208185,19.5035422 62.8848725,19.1703577 C62.5670142,18.7999447 62.4054109,18.3174381 62.4349679,17.8270568 C62.4090606,17.3342877 62.5572024,16.8483073 62.8527364,16.4565636 C63.1289618,16.1178248 63.5446836,15.9288749 63.9774978,15.9453479 C64.3820622,15.9184958 64.7765527,16.0807242 65.0486991,16.3858636 C65.3062269,16.7152456 65.4341112,17.1300006 65.4075515,17.5496951 L65.4075515,17.8923184 L62.9812806,17.8923184 C62.9660411,18.2392171 63.0765622,18.5797548 63.291929,18.8494882 C63.5101849,19.0768766 63.8153982,19.1960736 64.127466,19.1757961 C64.5145482,19.1748835 64.8973411,19.0934445 65.2522274,18.9365037 L65.2522274,19.4205271 C65.0800949,19.4984946 64.900652,19.5586224 64.7166267,19.5999964 C64.5189625,19.6384419 64.3179993,19.6566613 64.116754,19.6543811 L64.116754,19.6543811 Z M63.9721418,16.3913021 C63.7173071,16.3809529 63.4707577,16.48427 63.297285,16.6741022 C63.1173539,16.8932794 63.0137919,17.1666859 63.0027046,17.4518027 L64.8451709,17.4518027 C64.8633135,17.1720074 64.7836538,16.8946835 64.6202186,16.6686638 C64.4565296,16.4826674 64.2171634,16.3842416 63.9721418,16.402179 L63.9721418,16.3913021 Z" id="Shape"></path>
                        <path d="M67.9570106,19.6543811 C67.7413761,19.6564688 67.5277689,19.6119773 67.3303579,19.5238579 C67.1397154,19.4366004 66.9752414,19.2996179 66.8536733,19.12685 L66.8161813,19.12685 C66.8409217,19.3252743 66.8534434,19.525073 66.8536733,19.7250811 L66.8536733,21.1934667 L66.3180727,21.1934667 L66.3180727,16.016048 L66.7519092,16.016048 L66.8268933,16.5055098 L66.8268933,16.5055098 C66.9468165,16.3244794 67.1111026,16.1782817 67.3035779,16.0813096 C67.5003032,15.9910228 67.7143861,15.9464323 67.9302306,15.9507864 C68.3427013,15.9304333 68.740209,16.1100476 69.0014319,16.4348098 C69.5080176,17.2682427 69.5080176,18.3206093 69.0014319,19.1540423 C68.7492074,19.477107 68.3629522,19.6621458 67.9570106,19.6543811 L67.9570106,19.6543811 Z M67.8820266,16.3913021 C67.5889412,16.3640655 67.3000199,16.4765907 67.1000496,16.6958561 C66.9156067,16.9823771 66.8290378,17.3225185 66.8536733,17.6639029 L66.8536733,17.7835491 C66.8194849,18.1635131 66.9058116,18.544625 67.1000496,18.8712421 C67.2976754,19.1024816 67.5923195,19.2237709 67.8927386,19.19755 C68.1781492,19.2060944 68.4476112,19.0641461 68.6050874,18.8222959 C68.7928031,18.5126464 68.8825295,18.1520113 68.8621758,17.7889876 C68.885708,17.4273775 68.7956975,17.0675051 68.6050874,16.7611177 C68.4372787,16.5281316 68.1660458,16.3955274 67.8820266,16.4076175 L67.8820266,16.3913021 Z" id="Shape"></path>
                        <path d="M72.5149722,19.5891195 L72.4078521,19.0779038 L72.4078521,19.0779038 C72.2677287,19.2713501 72.0840916,19.4279801 71.8722514,19.5347348 C71.6650197,19.6203757 71.4424578,19.6611277 71.2188186,19.6543811 C70.9216409,19.6721027 70.6288706,19.5749532 70.3993496,19.3824578 C70.1944788,19.1790368 70.0869464,18.8951483 70.1047693,18.6047573 C70.1047693,17.8796287 70.6742913,17.5007489 71.8133353,17.4681181 L72.4132081,17.4681181 L72.4132081,17.2233872 C72.4310383,17.0017223 72.3681477,16.7811192 72.2364599,16.6034022 C72.0842139,16.4570547 71.8775891,16.3838206 71.6687232,16.402179 C71.3207844,16.4159127 70.9803293,16.5088419 70.672506,16.6741022 L70.5064697,16.2607789 C70.6860692,16.1632605 70.8767263,16.0883804 71.0742064,16.0378018 C71.2770542,15.9839344 71.4858332,15.9565214 71.6955032,15.9562249 C72.0300806,15.9285416 72.3626937,16.0294736 72.6274483,16.239025 C72.8507262,16.4845465 72.9615865,16.8143482 72.9327407,17.1472487 L72.9327407,19.5891195 L72.5363962,19.5891195 L72.5149722,19.5891195 Z M71.2991587,19.1812346 C71.5859002,19.1989903 71.8676491,19.0990559 72.0811357,18.9038729 C72.2791335,18.6966302 72.3821562,18.4143837 72.365004,18.1261724 L72.365004,17.8324953 L71.8294034,17.8324953 C71.5125199,17.8227448 71.1980954,17.8918256 70.9135262,18.0337185 C70.7302084,18.1500952 70.6235592,18.3583473 70.6350139,18.577565 C70.6225193,18.7460224 70.6878308,18.9108101 70.8117621,19.0235191 C70.9501071,19.1341929 71.123258,19.1902224 71.2991587,19.1812346 L71.2991587,19.1812346 Z" id="Shape"></path>
                        <path d="M75.6161,15.9507864 C75.7580532,15.9487293 75.8998391,15.9614861 76.0392245,15.9888557 L75.9642404,16.4891944 C75.838758,16.4667252 75.7113092,16.4576117 75.5839639,16.4620021 C75.3010614,16.4621771 75.0333714,16.5920869 74.855547,16.8155023 C74.6496949,17.0584297 74.5407931,17.3707652 74.5502547,17.6910952 L74.5502547,19.6108733 L74.014654,19.6108733 L74.014654,16.016048 L74.4538466,16.016048 L74.5127626,16.6741022 L74.5127626,16.6741022 C74.6258582,16.4579113 74.7872852,16.2716473 74.9840912,16.1302557 C75.171081,16.0047666 75.3921271,15.9419969 75.6161,15.9507864 L75.6161,15.9507864 Z" id="Shape"></path>
                        <path d="M77.8334867,19.1812346 C77.9243999,19.1884553 78.0157297,19.1884553 78.106643,19.1812346 L78.3155272,19.1377269 L78.3155272,19.5510502 C78.2334654,19.5865813 78.1469438,19.610375 78.0584389,19.6217503 C77.9575582,19.6391172 77.8554644,19.6482107 77.7531466,19.6489426 C77.4638999,19.6836684 77.1754062,19.5782761 76.9742471,19.3643954 C76.773088,19.1505148 76.6826775,18.8530406 76.7301493,18.5612496 L76.7301493,16.4348098 L76.2266847,16.4348098 L76.2266847,16.1737635 L76.7301493,15.9507864 L76.9551016,15.1894013 L77.26575,15.1894013 L77.26575,16.016048 L78.2887472,16.016048 L78.2887472,16.4348098 L77.26575,16.4348098 L77.26575,18.5394957 C77.2538824,18.7176013 77.3072973,18.8938721 77.4157182,19.0343961 C77.5276565,19.1421376 77.6799043,19.1956502 77.8334867,19.1812346 L77.8334867,19.1812346 Z" id="Shape"></path>
                        <path d="M80.5061339,19.6543811 C80.0461607,19.6798018 79.5975649,19.5035422 79.2742524,19.1703577 C78.9563942,18.7999447 78.7947908,18.3174381 78.8243479,17.8270568 C78.7984405,17.3342877 78.9465823,16.8483073 79.2421164,16.4565636 C79.5183417,16.1178248 79.9340636,15.9288749 80.3668777,15.9453479 C80.7714421,15.9184958 81.1659326,16.0807242 81.438079,16.3858636 C81.7052082,16.7113185 81.8427679,17.126471 81.8237115,17.5496951 L81.8237115,17.8923184 L79.3974406,17.8923184 C79.382201,18.2392171 79.4927221,18.5797548 79.7080889,18.8494882 C79.9263449,19.0768766 80.2315582,19.1960736 80.543626,19.1757961 C80.9307082,19.1748835 81.313501,19.0934445 81.6683873,18.9365037 L81.6683873,19.4205271 C81.4962548,19.4984946 81.3168119,19.5586224 81.1327867,19.5999964 C80.9263458,19.6402942 80.7163154,19.6585219 80.5061339,19.6543811 L80.5061339,19.6543811 Z M80.3615217,16.3913021 C80.1066871,16.3809529 79.8601376,16.48427 79.6866649,16.6741022 C79.5067338,16.8932794 79.4031719,17.1666859 79.3920846,17.4518027 L81.2345508,17.4518027 C81.2526935,17.1720074 81.1730337,16.8946835 81.0095985,16.6686638 C80.8459095,16.4826674 80.6065433,16.3842416 80.3615217,16.402179 L80.3615217,16.3913021 Z" id="Shape"></path>
                        <path d="M87.195786,19.5891195 L87.195786,17.2614565 C87.2124515,17.0323316 87.14786,16.8047099 87.0136818,16.6197176 C86.8735681,16.4739856 86.6783675,16.3966853 86.4780812,16.4076175 C86.2030058,16.3850943 85.9328374,16.4912211 85.7443083,16.6958561 C85.5673144,16.9569051 85.4841077,17.2718139 85.508644,17.5877644 L85.508644,19.583681 L84.9730433,19.583681 L84.9730433,17.2614565 C84.9897088,17.0323316 84.9251173,16.8047099 84.7909391,16.6197176 C84.6504346,16.4745863 84.4555119,16.3973961 84.2553385,16.4076175 C83.9768393,16.3840315 83.7040519,16.4972525 83.5215656,16.7121715 C83.338775,17.0111913 83.2561081,17.3622114 83.2859013,17.7128491 L83.2859013,19.5891195 L82.7503006,19.5891195 L82.7503006,16.016048 L83.1841372,16.016048 L83.2698333,16.5055098 L83.2698333,16.5055098 C83.3709909,16.332415 83.5174659,16.1912156 83.6929578,16.097625 C83.8832511,15.9979807 84.0948155,15.9475444 84.3088985,15.9507864 C84.7565008,15.9053002 85.184407,16.1486169 85.3800998,16.5598945 L85.3800998,16.5598945 C85.4867132,16.3700811 85.6447164,16.2153078 85.8353604,16.1139403 C86.0451598,16.0028335 86.2789867,15.9467484 86.5155732,15.9507864 C86.843018,15.924848 87.1665325,16.0369691 87.4100263,16.2607789 C87.6310453,16.5414845 87.7365997,16.8980998 87.7046067,17.256018 L87.7046067,19.5891195 L87.169006,19.5891195 L87.195786,19.5891195 Z" id="Shape"></path>
                        <path d="M90.3183378,19.6543811 C89.8583647,19.6798018 89.4097688,19.5035422 89.0864563,19.1703577 C88.7685981,18.7999447 88.6069947,18.3174381 88.6365518,17.8270568 C88.6106445,17.3342877 88.7587862,16.8483073 89.0543203,16.4565636 C89.3305456,16.1178248 89.7462675,15.9288749 90.1790817,15.9453479 C90.583646,15.9184958 90.9781366,16.0807242 91.250283,16.3858636 C91.5174122,16.7113185 91.6549718,17.126471 91.6359154,17.5496951 L91.6359154,17.8923184 L89.1882205,17.8923184 C89.1746498,18.2424659 89.2891145,18.5853352 89.5095809,18.8549267 C89.7278368,19.0823151 90.0330501,19.2015121 90.3451179,19.1812346 C90.7322001,19.180322 91.114993,19.098883 91.4698792,18.9419421 L91.4698792,19.4259655 C91.2977468,19.5039331 91.1183039,19.5640609 90.9342786,19.6054349 C90.7311618,19.6431586 90.5247613,19.6595604 90.3183378,19.6543811 L90.3183378,19.6543811 Z M90.1737257,16.3913021 C89.918891,16.3809529 89.6723416,16.48427 89.4988688,16.6741022 C89.3189377,16.8932794 89.2153758,17.1666859 89.2042885,17.4518027 L91.0467547,17.4518027 C91.0648974,17.1720074 90.9852377,16.8946835 90.8218025,16.6686638 C90.6581135,16.4826674 90.4187472,16.3842416 90.1737257,16.402179 L90.1737257,16.3913021 Z" id="Shape"></path>
                        <path d="M94.9298595,19.5891195 L94.9298595,17.2777719 C94.9471646,17.0426475 94.8763857,16.8095603 94.7316872,16.6251561 C94.5662521,16.4668859 94.3422012,16.3877554 94.1157465,16.4076175 C93.8149218,16.381593 93.518358,16.4932702 93.3069895,16.7121715 C93.1097801,17.005448 93.018915,17.3591269 93.0499012,17.7128491 L93.0499012,19.5891195 L92.5143005,19.5891195 L92.5143005,16.016048 L92.948137,16.016048 L93.0338331,16.5055098 L93.0338331,16.5055098 C93.1451055,16.3270144 93.3051599,16.1852831 93.4944497,16.097625 C93.7001556,15.9983397 93.9254911,15.9481143 94.1532385,15.9507864 C94.5003497,15.9236353 94.8442283,16.0348244 95.1119637,16.2607789 C95.3489424,16.5337522 95.4651247,16.8935636 95.4333241,17.256018 L95.4333241,19.5891195 L94.8977234,19.5891195 L94.9298595,19.5891195 Z" id="Shape"></path>
                        <path d="M97.6989148,19.1812346 C97.7898281,19.1884553 97.8811579,19.1884553 97.9720712,19.1812346 L98.1809554,19.1377269 L98.1809554,19.5510502 C98.0988936,19.5865813 98.012372,19.610375 97.9238671,19.6217503 C97.8229864,19.6391172 97.7208926,19.6482107 97.6185747,19.6489426 C97.329328,19.6836684 97.0408343,19.5782761 96.8396753,19.3643954 C96.6385162,19.1505148 96.5481057,18.8530406 96.5955775,18.5612496 L96.5955775,16.4348098 L96.0921129,16.4348098 L96.0921129,16.1737635 L96.5955775,15.9507864 L96.8205298,15.1894013 L97.1311781,15.1894013 L97.1311781,16.016048 L98.1541754,16.016048 L98.1541754,16.4348098 L97.1311781,16.4348098 L97.1311781,18.5394957 C97.1193106,18.7176013 97.1727254,18.8938721 97.2811463,19.0343961 C97.3930847,19.1421376 97.5453324,19.1956502 97.6989148,19.1812346 L97.6989148,19.1812346 Z" id="Shape"></path>
                        <path d="M100.371562,19.6543811 C99.9168671,19.6794943 99.4730311,19.5075285 99.1503926,19.1812346 C98.8325343,18.8108217 98.670931,18.328315 98.700488,17.8379338 C98.6745807,17.3451646 98.8227225,16.8591842 99.1182565,16.4674406 C99.3944819,16.1287017 99.8102038,15.9397518 100.243018,15.9562249 C100.647582,15.9293727 101.042073,16.0916011 101.314219,16.3967405 C101.567299,16.7240431 101.693104,17.1343652 101.667716,17.5496951 L101.667716,17.8923184 L99.2414447,17.8923184 C99.2262052,18.2392171 99.3367263,18.5797548 99.5520931,18.8494882 C99.770349,19.0768766 100.075562,19.1960736 100.38763,19.1757961 C100.774712,19.1748835 101.157505,19.0934445 101.512391,18.9365037 L101.512391,19.4205271 C101.340259,19.4984946 101.160816,19.5586224 100.976791,19.5999964 C100.777371,19.6388059 100.574595,19.6570269 100.371562,19.6543811 L100.371562,19.6543811 Z M100.22695,16.3913021 C99.9721152,16.3809529 99.7255658,16.48427 99.5520931,16.6741022 C99.372162,16.8932794 99.2686,17.1666859 99.2575127,17.4518027 L101.099979,17.4518027 C101.118122,17.1720074 101.038462,16.8946835 100.875027,16.6686638 C100.710158,16.4810862 100.468439,16.3825077 100.221594,16.402179 L100.22695,16.3913021 Z" id="Shape"></path>
                        <path d="M103.71371,19.1812346 C103.804623,19.1884553 103.895953,19.1884553 103.986866,19.1812346 L104.195751,19.1377269 L104.195751,19.5510502 C104.113689,19.5865813 104.027167,19.610375 103.938662,19.6217503 C103.837782,19.6391172 103.735688,19.6482107 103.63337,19.6489426 C103.344123,19.6836684 103.05563,19.5782761 102.854471,19.3643954 C102.653311,19.1505148 102.562901,18.8530406 102.610373,18.5612496 L102.610373,16.4348098 L102.106908,16.4348098 L102.106908,16.1737635 L102.610373,15.9507864 L102.835325,15.1894013 L103.145973,15.1894013 L103.145973,16.016048 L104.168971,16.016048 L104.168971,16.4348098 L103.145973,16.4348098 L103.145973,18.5394957 C103.134106,18.7176013 103.187521,18.8938721 103.295942,19.0343961 C103.40788,19.1421376 103.560128,19.1956502 103.71371,19.1812346 L103.71371,19.1812346 Z" id="Shape"></path>
                        <path d="M5.72557096,11.9915839 C5.72557096,11.9915839 5.12569823,11.9480762 5.0185781,11.9154454 C4.8947604,11.8779193 4.78355305,11.8064036 4.69721771,11.7087837 C4.69721771,11.6489606 4.69721771,11.4912451 4.83111788,11.5510682 C4.96144147,11.6464362 5.11540968,11.7029442 5.27566642,11.7142222 C5.38814255,11.7142222 5.55953476,11.7522914 5.58095879,11.746853 L5.72557096,11.9915839 Z M0.637364775,12.9596307 C0.944330289,12.5383558 1.30447989,12.1598622 1.70856608,11.8338684 C1.85296721,11.7753966 2.01000369,11.7566373 2.16382663,11.7794838 L2.16382663,12.752969 L1.83175423,12.6822689 C1.65099825,12.6827988 1.47103496,12.7065542 1.29615358,12.752969 L1.19438945,12.9324383 C1.35128703,12.8898587 1.51873719,12.921864 1.64965001,13.0194538 C1.66614808,13.142303 1.71417283,13.2585866 1.78890618,13.3566386 C1.91542933,13.3858242 2.04479196,13.4004191 2.17453864,13.4001463 L2.17453864,13.5361079 C1.97889031,13.5748662 1.79523223,13.6606496 1.63893799,13.7862773 C1.52577843,13.9079103 1.43020167,14.0452427 1.35506965,14.1941622 L1.3175776,14.4171393 L1.38184968,14.4878393 C1.43739436,14.4161354 1.49827438,14.3488636 1.5639539,14.2866161 C1.71927809,14.1724083 1.82104221,14.3573162 1.87995829,14.3845085 C1.96590409,14.3726246 2.04232356,14.3228835 2.08884254,14.2485469 C2.14240261,14.1941622 2.16918264,14.2159161 2.16918264,14.2159161 L2.16918264,17.5496951 C1.95012808,17.5139545 1.72554861,17.54816 1.52646186,17.6475875 C1.46022701,17.6958708 1.40834573,17.7617208 1.37649367,17.8379338 C1.50963205,17.8174235 1.64505578,17.8174235 1.77819416,17.8379338 C1.8604162,17.9505112 1.92876659,18.0728791 1.98172241,18.2023109 C2.04348097,18.2160096 2.10742408,18.2160096 2.16918264,18.2023109 L2.16918264,18.6047573 C2.13396688,18.6695902 2.08667025,18.7268506 2.02992647,18.7733497 C1.94145274,18.9448207 1.87657527,19.1278105 1.83711023,19.3171962 L1.91209433,19.4803502 L2.00314644,19.3008808 C2.02935151,19.2278662 2.08956553,19.1728393 2.16382663,19.1540423 L2.16382663,20.214543 L2.52803507,20.214543 L2.52803507,19.12685 C2.57606145,19.1519836 2.62932957,19.1650394 2.68335926,19.1649192 C2.74227534,19.12685 2.97793962,18.5666881 3.01543167,18.5449342 C3.10592379,18.5460864 3.19590735,18.5588781 3.28323199,18.5830035 L3.41713216,19.0833422 L3.51354027,19.0833422 L5.90231918,15.6625478 L6.07906739,15.8148248 L5.0989182,17.2233872 C5.22250358,17.3764399 5.33526164,17.5381854 5.43634661,17.7074106 C5.52285542,17.9662593 5.59615164,18.2294684 5.65594288,18.495988 C5.65594288,18.5340573 5.65594288,18.5394957 5.62916285,18.5612496 C5.23736508,18.8129129 4.86004471,19.0870956 4.49904547,19.3824578 C4.33123363,19.4907933 4.18571774,19.6311617 4.07056495,19.7957811 C3.91788034,20.4692985 3.86373912,21.1619804 3.90988476,21.8515209 C3.95817965,21.9713175 4.02914744,22.0803319 4.11876901,22.1723904 L3.95808881,22.2430904 C3.80829559,22.3659951 3.67344635,22.5065717 3.55638833,22.6618522 C3.28130656,23.0045363 2.97264351,23.3179514 2.6351552,23.5972682 C2.49123836,23.6115041 2.34596967,23.5985974 2.20667468,23.5591989 L2.20667468,23.1893833 C2.2034372,23.1052027 2.18529423,23.0223024 2.15311462,22.9446524 C2.08334044,22.8384837 2.02071105,22.7276492 1.96565439,22.612906 C1.96565439,22.5802752 1.63893799,22.3736136 1.63893799,22.3736136 L1.41934173,22.3736136 C1.493477,22.4397769 1.56159476,22.5125837 1.62286997,22.5911522 C1.65699794,22.6482339 1.6666723,22.716997 1.64965001,22.7814984 C1.57264176,22.85 1.52308687,22.9448298 1.51039384,23.0479832 C1.51039384,23.0860525 1.85317825,23.4395527 1.85317825,23.4395527 C1.82285753,23.4705674 1.79065882,23.4996291 1.75677014,23.5265681 C1.63753594,23.4713279 1.52132058,23.4096024 1.40862971,23.3416603 C1.36248116,23.3113113 1.30825121,23.296121 1.25330552,23.2981526 C1.12869223,23.315789 1.00526952,23.3412168 0.883741075,23.3742911 C0.764808626,23.4528394 0.650363078,23.5381793 0.540956658,23.629899 L0.540956658,23.8039298 L0.685568834,23.7114759 C0.759881661,23.6790948 0.840450979,23.6642203 0.92123312,23.6679682 C1.00157322,23.6679682 0.985505199,23.7114759 1.00157322,23.7495452 C1.04312615,23.8475364 1.11443919,23.9294751 1.20510147,23.9833992 C1.37645693,23.9793291 1.54695218,23.9574613 1.71392208,23.9181376 L1.78355017,24.01603 C1.62906314,24.0762067 1.4989297,24.1872783 1.41398572,24.331461 C1.42106895,24.4403674 1.46025977,24.5445903 1.52646186,24.6305765 L1.52646186,24.6740842 C1.45788649,24.7971472 1.35553441,24.8972958 1.2318815,24.9623229 L1.38184968,24.9895152 C1.40124481,24.9939567 1.42137062,24.9939567 1.44076575,24.9895152 C1.56855329,24.9638717 1.68923077,24.9100304 1.79426218,24.8317997 L2.07277452,24.5489996 C2.07277452,24.5489996 2.1370466,24.3042686 2.14240261,24.2607609 C2.14775861,24.2172532 2.24952274,24.1791839 2.44769498,24.2172532 C2.64586722,24.2553224 2.58159514,24.2172532 2.60837517,24.3151456 C2.6235539,24.3592561 2.63432021,24.4048064 2.64051121,24.4511072 C2.64051121,24.5381226 2.69407128,24.7284689 2.69407128,24.7284689 L2.77441137,24.7284689 C2.90513633,24.5347013 3.0520785,24.3527447 3.21360391,24.1846224 C3.29394401,24.1465531 4.74006576,23.0534217 4.74006576,23.0534217 C4.84837353,23.0773944 4.96146202,23.0639976 5.06142616,23.0153524 C5.19509151,22.9173324 5.31570959,22.8021693 5.42027859,22.6727291 L5.42027859,22.3192289 C5.40639213,22.1645013 5.44825955,22.0099123 5.53811074,21.8841517 C5.62954006,21.7236169 5.7452079,21.5786413 5.88089515,21.454513 L5.95587924,21.3892514 C5.95587924,21.3892514 5.5916708,20.9106665 5.5059747,20.8182126 C5.38040137,20.6649137 5.34751615,20.4541298 5.42027859,20.2689276 C5.74163898,19.1812346 5.90767518,18.4416034 5.91303119,18.3600264 C5.9183872,18.2784494 5.91303119,17.8868799 5.91303119,17.8868799 L6.15405148,18.0935416 L6.15405148,18.4579188 C6.15405148,18.6047573 5.93981122,19.3552655 5.89696317,19.5456118 C5.75813779,19.9026438 5.68375252,20.2821384 5.6773669,20.6659355 C5.91534022,21.0394029 6.21846026,21.36562 6.57181999,21.6285439 C7.09361716,21.699343 7.62057101,21.7230024 8.14648591,21.6992439 C8.97131091,21.8025747 9.01415896,21.8569594 9.07843104,21.9330979 C9.14270312,22.0092364 9.64616773,22.5965906 9.78006789,22.7107984 C10.0334059,22.9894358 10.2527945,23.2980219 10.4335007,23.629899 L10.1335643,23.7060375 C9.98440159,23.5243414 9.80265712,23.3730165 9.59796367,23.2600833 C9.39841838,23.1695107 9.17233066,23.1597832 8.9659549,23.232891 C8.8469255,23.2427257 8.74051334,23.312041 8.68208656,23.4177988 C8.81481892,23.3946227 8.95134973,23.4196536 9.06771903,23.4884989 C9.12127909,23.5374451 9.13734711,23.7223529 9.18019516,23.7549837 C9.30347866,23.7807333 9.42931483,23.7916853 9.55511562,23.7876145 L9.55511562,23.8963838 L9.55511562,23.8963838 C9.52833559,23.8963838 9.14270312,23.9398915 9.01951497,23.9725223 C8.93735022,24.0053648 8.86526047,24.0597953 8.81063072,24.1302377 C8.70233233,24.275222 8.60731414,24.4299558 8.52676237,24.5925073 L8.58567844,24.7502228 C8.6749985,24.6289068 8.79542859,24.5348421 8.93381887,24.4782995 C8.99952156,24.5637531 9.10020788,24.613869 9.2069752,24.6142611 C9.39681721,24.5304252 9.55866775,24.3925288 9.67294776,24.2172532 L9.79613591,24.2661994 C9.79613591,24.2661994 9.68901578,24.4347918 9.64616773,24.4782995 C9.53519456,24.6891988 9.5157859,24.937513 9.59260767,25.1635461 L9.7050838,25.2070538 C9.68184276,25.0587106 9.73190478,24.9082457 9.83898397,24.8046074 C9.9460808,24.8379132 10.0618635,24.8261567 10.1603444,24.7719766 C10.2511775,24.5907192 10.2901441,24.3872341 10.2728205,24.1846224 L10.8459132,24.0214684 L11.5582621,24.168307 L11.5957541,24.0377838 L11.49399,23.9181376 C11.3817395,23.7611711 11.2814686,23.5957225 11.1940536,23.4232373 C10.9958814,22.9718447 10.2781765,21.6938054 10.2728205,21.6666131 C10.2847667,21.5800204 10.2847667,21.4921595 10.2728205,21.4055668 C10.1739481,21.2015838 10.0396884,21.0173587 9.87647601,20.8617203 C9.75080134,20.7855354 9.60984368,20.7390653 9.46406351,20.7257587 C9.17770249,20.5649348 8.9115415,20.3695451 8.67137455,20.1438429 C8.53211838,19.9317428 7.94295766,19.3335116 7.85190555,19.2301808 C7.76085344,19.12685 7.20382876,18.6863343 7.20382876,18.6863343 L7.45556107,18.6047573 L8.09828185,19.0942192 C8.31787812,19.2736885 8.69279857,19.4912271 8.82669874,19.5782425 C9.31946996,19.9583738 9.8972481,20.2087376 10.5084848,20.3069969 C10.9420133,20.3839001 11.3830165,20.2201241 11.6653822,19.8773581 C12.0154567,19.4340366 12.0154567,18.8033479 11.6653822,18.3600264 L11.0494414,17.4354873 L12.1206427,16.8263793 L12.1206427,16.6686638 L11.6868062,16.7937485 C11.6868062,16.7937485 11.3118858,16.7556792 11.2047656,16.7339254 C11.1642177,16.7245888 11.1221254,16.7245888 11.0815775,16.7339254 L10.7762851,16.7991869 L10.7762851,16.6632253 L12.1688468,15.8855248 L12.1956268,15.7114939 C12.1956268,15.7114939 11.7564343,15.852894 11.7028742,15.863771 C11.5230097,15.8492166 11.3441592,15.8237921 11.1672736,15.7876324 C11.1070139,15.7636756 11.040073,15.7636756 10.9798134,15.7876324 L10.6477409,15.8800864 L10.6477409,15.7332478 L12.2545429,14.846778 L12.297391,14.694501 L11.7617903,14.8195857 C11.7617903,14.8195857 11.3118858,14.7162548 11.3118858,14.7216933 L10.9798134,14.7869549 C10.9694167,14.7906873 10.958074,14.7906873 10.9476773,14.7869549 C11.1264808,14.4781008 11.3307399,14.1851885 11.5582621,13.911362 C11.7696382,13.6560358 11.9646413,13.3871846 12.1420668,13.1064692 C12.7687195,12.051407 12.372375,11.3879143 12.302747,11.268268 C11.9862717,10.7239304 11.3493887,10.4630252 10.7495051,10.6319676 C10.2413275,10.8091039 9.89525771,11.2884798 9.88183202,11.8338684 C9.87594481,11.9167648 9.83962825,11.9943978 9.78006789,12.051407 C9.56685898,12.3579351 9.37876826,12.6817027 9.21768721,13.0194538 C9.27445905,13.0269652 9.33215628,13.017516 9.38372341,12.9922614 L9.78006789,12.6061304 C9.82291595,12.5626227 9.82827195,12.6496381 9.81755994,12.7420921 C9.75185331,13.0462485 9.61806897,13.3309626 9.42657146,13.5741772 C9.17578249,13.9762111 8.95382705,14.3960584 8.76242666,14.8304626 L8.92846286,14.8304626 C9.34398338,14.3598694 9.82162534,13.9499109 10.3478046,13.6122465 C10.4517291,13.3128473 10.4629431,12.9883279 10.3799406,12.6822689 L10.5459768,12.7584074 C10.5942467,12.8973883 10.6265958,13.0415507 10.6423849,13.1880462 C10.6576812,13.3471964 10.6576812,13.5074808 10.6423849,13.6666311 L10.7762851,13.5524233 C10.9638376,13.0966948 11.0068955,12.5929544 10.8994733,12.1112301 C10.7531313,11.9417648 10.5696855,11.809513 10.3638726,11.7250991 C10.3456508,11.5216697 10.4207277,11.3210572 10.5674009,11.1812526 C10.7869678,11.0035166 11.0753385,10.939316 11.3480002,11.007466 C11.6206619,11.075616 11.8467343,11.2683983 11.9599625,11.5293144 C12.329527,12.3070149 11.5529061,13.220677 11.4243619,13.3566386 C10.9423213,13.8134697 9.89254403,14.8250241 9.77471189,14.9609858 C8.9659549,15.8964017 9.35158737,16.4130559 9.46941952,16.6632253 C9.86967617,17.1893784 10.3259148,17.6690559 10.8298452,18.0935416 C11.0937097,18.31473 11.3074589,18.5911314 11.4564979,18.9038729 C11.6868062,19.7957811 10.7923531,19.9589351 10.4442127,19.8773581 C9.69437179,19.6978888 8.5481864,18.7189651 8.35537016,18.5938804 C8.06748056,18.4151617 7.76013085,18.2709837 7.43949305,18.1642417 C7.35379694,17.6203952 7.30559289,15.700617 7.30559289,15.700617 L7.43413704,15.700617 C7.48769711,15.700617 7.5626812,15.782194 7.5626812,15.7386863 C7.5439153,15.5579048 7.5439153,15.3756212 7.5626812,15.1948398 L7.83583753,14.5966086 C8.09706964,14.0945794 8.30532485,13.5659259 8.45713429,13.0194538 C8.48527603,12.6974041 8.48527603,12.3734566 8.45713429,12.051407 C8.56947861,11.9194578 8.66986465,11.7774818 8.75707065,11.6272067 C8.77984389,11.4885771 8.77984389,11.3470745 8.75707065,11.2084449 C8.6905299,11.1644424 8.61577928,11.1348223 8.53747438,11.1214295 L8.49998234,11.1214295 L8.48927032,11.1214295 L9.02487098,10.3328521 C8.97996374,10.310293 8.93034905,10.2990977 8.8802588,10.3002213 C8.79303588,10.314947 8.71046155,10.3503485 8.63923851,10.4035521 C8.59629424,10.3063205 8.49740529,10.2473834 8.39286221,10.2567136 C8.3261782,10.256191 8.26347211,10.2888717 8.22501541,10.3441908 C8.18655872,10.3995098 8.17723036,10.470449 8.20004597,10.5340753 C8.26118748,10.6453922 8.39497622,10.6922365 8.51069435,10.6428446 C8.51355559,10.6516759 8.51355559,10.6612056 8.51069435,10.6700369 L8.33930214,10.8386293 L7.63766529,10.7026677 L7.60017324,10.5068829 L7.60017324,10.4796906 C7.65094374,10.5066409 7.70495948,10.5267516 7.76085344,10.5395137 C7.85888824,10.54083 7.94313532,10.4691579 7.95902568,10.3709213 C7.96666978,10.299668 7.93925722,10.2291639 7.88573839,10.1824292 C7.83221956,10.1356944 7.75946343,10.1187271 7.69122535,10.1370673 C7.69296237,10.0392492 7.62515879,9.95433735 7.53054516,9.93584412 C7.42910023,9.92270183 7.3326514,9.9841951 7.30023688,10.0826827 L7.21989678,10.0554903 C7.16230651,10.0341471 7.09807712,10.0427461 7.04790322,10.078517 C6.99772932,10.1142878 6.96795163,10.1727099 6.96816447,10.2349597 C6.96963163,10.3103659 7.00766293,10.380176 7.06979311,10.4215087 C7.13192329,10.4628413 7.21014231,10.4703679 7.27881285,10.4416214 L7.27881285,10.4416214 L7.1556247,10.6265292 L6.45934386,10.4796906 L6.38435976,10.2567136 L6.38435976,10.2295212 C6.40619085,10.2673271 6.4435116,10.2932555 6.48612389,10.3002213 C6.54194217,10.3203729 6.60399105,10.3107898 6.65138421,10.2746977 C6.69877737,10.2386056 6.72521134,10.1808049 6.72178818,10.1207519 C6.72178818,9.75637477 6.32008769,9.91409026 6.32008769,9.91409026 C6.15405148,9.70742859 6.04693135,9.77812863 6.04693135,9.77812863 L6.25581561,10.7135446 C6.25581561,10.7135446 5.72021496,11.2573911 5.72021496,11.3117758 C5.73211316,11.4379018 5.75909172,11.5620875 5.80055505,11.6815914 L6.02015132,12.0078993 L5.84340311,12.2798225 L6.80212827,12.3940303 L6.67894012,12.7148997 C6.22057431,12.8084111 5.77084378,12.9412229 5.33458249,13.1119077 C5.03158972,13.3423029 4.7659372,13.6193852 4.54724953,13.9331159 C4.42406138,14.0853929 4.15626105,15.2383475 3.81347664,15.8202632 L4.39728135,15.8202632 L3.32608005,18.039157 L3.16539985,17.9902108 L3.21360391,17.4463643 C3.19552931,17.3119162 3.1668722,17.1791553 3.1279078,17.0493563 C3.0403804,16.9029911 2.9380632,16.7662905 2.82261543,16.6414715 L2.64586722,16.6142791 C2.72116835,16.7377946 2.77379394,16.874148 2.80119141,17.0167255 C2.82797144,17.1363718 2.73156332,17.1418102 2.67800326,17.2233872 C2.64626952,17.2671643 2.6327995,17.3218739 2.64051121,17.3756642 L2.81190342,17.8216184 L2.70478329,17.8216184 C2.65911755,17.7478462 2.59666316,17.6862955 2.52267907,17.642149 L2.52267907,13.8134697 L2.74227534,13.9494313 L2.6297992,14.1615314 L3.00471965,14.2376699 L3.8670367,15.0262474 L4.22053313,14.1289006 L3.34214806,13.6394388 L3.21360391,13.4001463 L2.94044758,13.454531 C2.91554388,13.4138062 2.88274302,13.3786501 2.84403946,13.3512001 C2.99078476,13.2188599 3.11241004,13.0603404 3.2028919,12.8834921 C3.23370839,12.7743504 3.25873903,12.6636093 3.27787599,12.5517458 C3.27941798,12.4133383 3.25203561,12.2761722 3.19753589,12.1492994 C3.15468784,12.0894763 3.02614368,11.9480762 3.0422117,12.0078993 C3.05830433,12.1713249 3.03247224,12.3361979 2.96722761,12.4864842 L2.81190342,12.5408688 C2.76955326,12.545033 2.73270331,12.5720566 2.7154953,12.6115689 L2.6351552,13.0847153 L2.52267907,12.9705076 L2.52267907,11.7794838 L2.74227534,11.7794838 L2.74227534,10.9800294 L2.52803507,10.9800294 L2.52803507,10.65916 L2.15847063,10.65916 L2.15847063,10.9800294 L1.7246341,10.9800294 C1.09052732,10.7513733 0.507811557,10.3963611 0.010712013,9.93584412 C-0.0502009362,10.9825187 0.166185713,12.0266489 0.637364775,12.9596307 L0.637364775,12.9596307 Z M7.00565652,11.8719377 L7.05921659,12.1275455 L6.18083152,12.0296531 L6.13798347,11.7577299 L7.00565652,11.8719377 Z M6.13798347,11.3280912 L6.09513541,11.1214295 L6.43791983,10.7788062 L8.26967406,11.1051141 C8.26967406,11.1051141 8.34465815,11.1051141 8.31787812,11.1377449 L8.01258574,11.3335296 C7.65379095,11.1716012 7.26431811,11.0917647 6.87175636,11.0996756 C6.87175636,11.0996756 6.99494451,11.2954604 6.68429613,11.4096681 C6.63073606,11.4096681 6.35222373,11.4858066 6.34151171,11.2301988 L6.13798347,11.3280912 Z M8.28038607,11.431422 C8.33993761,11.3885751 8.40476141,11.3538358 8.47320231,11.3280912 C8.52225681,11.3352965 8.56951474,11.3519069 8.61245847,11.3770373 C8.60822344,11.431337 8.60822344,11.4858916 8.61245847,11.5401913 C8.57103016,11.6274159 8.51483031,11.7065707 8.44642227,11.7740453 C8.4209958,11.650596 8.35011216,11.5416609 8.24825003,11.4694912 C8.25349121,11.4618682 8.26099939,11.4561504 8.26967406,11.4531759 L8.28038607,11.431422 Z M4.67043768,14.8304626 C4.8018022,14.4656419 4.997852,14.1283321 5.24888638,13.8352235 C5.49456581,13.7369596 5.74937012,13.6640787 6.00943931,13.6176849 L5.9237432,13.8624158 C5.71881484,13.9016063 5.51922929,13.9655076 5.32922648,14.0527621 C5.16895366,14.2988452 5.03092094,14.5591383 4.91681398,14.8304626 L4.67043768,14.8304626 L4.67043768,14.8304626 Z M2.52803507,18.4579188 L2.52803507,18.2458186 C2.58324495,18.2402569 2.6388614,18.2402569 2.69407128,18.2458186 L2.73156332,18.2458186 L2.73156332,18.3545879 L2.52803507,18.4579188 Z" id="Shape"></path>
                        <rect id="Rectangle-path" x="18.5731117" y="0" width="0.423790267" height="37.5427653"></rect>
                    </g>
                </g>
            </g>
        </g>
    </g>
</svg>