<?xml version="1.0" encoding="UTF-8"?>
<svg width="253px" height="41px" viewBox="0 0 253 41" version="1.1" xmlns="http://www.w3.org/2000/svg" xmlns:xlink="http://www.w3.org/1999/xlink">
    <!-- Generator: Sketch 41.2 (35397) - http://www.bohemiancoding.com/sketch -->
    <title>logo</title>
    <desc>Created with Sketch.</desc>
    <defs>
        <polygon id="path-1" points="0.129628894 40.9335135 175.338036 40.9335135 175.338036 0.166216216 87.7338324 0.166216216 0.129628894 0.166216216 0.129628894 40.9335135"></polygon>
        <polygon id="path-3" points="0.129628894 40.9335135 175.338036 40.9335135 175.338036 0.166216216 87.7338324 0.166216216 0.129628894 0.166216216 0.129628894 40.9335135"></polygon>
    </defs>
    <g id="Symbols" stroke="none" stroke-width="1" fill="none" fill-rule="evenodd">
        <g id="desktop-menu-white" transform="translate(-110.000000, -46.000000)">
            <g id="logo" transform="translate(110.000000, 46.000000)">
                <path d="M11.5336477,40.4404054 L0,0.903108108 L8.63527861,0.903108108 L13.3229696,17.4371892 C14.0010285,19.9016216 14.738916,22.9843784 15.2951015,25.7646216 L15.4202986,25.7646216 C15.9753762,22.9843784 16.6523271,19.9016216 17.3281701,17.4371892 L22.0790136,0.903108108 L30.0351255,0.903108108 L18.5014777,40.4404054 L11.5336477,40.4404054 Z" id="Fill-1" fill="#000000"></path>
                <polygon id="Fill-2" fill="#000000" points="32.7318496 40.2575676 53.265288 40.2575676 53.265288 33.1645676 41.1798865 33.1645676 41.1798865 24.0935946 49.9348225 24.0935946 49.9348225 16.9451892 41.1798865 16.9451892 41.1798865 7.99943243 51.970107 7.99943243 51.970107 0.905324324 32.7318496 0.905324324"></polygon>
                <polyline id="Fill-3" fill="#000000" points="57.9851092 0.905324324 57.9851092 40.2575676 79.0137964 40.2575676 79.0137964 32.9163514 66.4331461 32.9163514 66.4331461 0.905324324 57.9851092 0.905324324"></polyline>
                <polygon id="Fill-4" fill="#000000" points="135.433387 40.2575676 143.943469 40.2575676 143.943469 0.905324324 135.433387 0.905324324"></polygon>
                <polygon id="Fill-5" fill="#000000" points="159.69061 18.5475135 159.69061 0.905324324 151.301294 0.905324324 151.301294 40.2575676 159.69061 40.2575676 159.69061 23.1760811 168.87875 40.2575676 178.498987 40.2575676 167.398543 20.2761622 177.943909 0.905324324 168.938579 0.905324324"></polygon>
                <polygon id="Fill-6" fill="#000000" points="180.051209 7.81437838 189.362331 7.81437838 189.362331 40.2575676 197.870197 40.2575676 197.870197 7.87975676 207.123705 7.87975676 207.123705 0.905324324 180.051209 0.905324324"></polygon>
                <g id="Group-11" transform="translate(77.555748, 0.000000)">
                    <mask id="mask-2" fill="white">
                        <use xlink:href="#path-1"></use>
                    </mask>
                    <g id="Clip-8"></g>
                    <polygon id="Fill-7" fill="#000000" mask="url(#mask-2)" points="133.501141 40.2575676 142.010115 40.2575676 142.010115 0.905324324 133.501141 0.905324324"></polygon>
                    <path d="M163.560641,41 C154.493267,41 146.232471,33.7208378 146.232471,20.5808919 C146.232471,7.38443243 154.676077,0.166216216 163.560641,0.166216216 C167.934786,0.166216216 171.391556,1.45937838 173.367012,3.06502703 L172.745458,10.7131892 C170.833155,9.04548649 167.999046,7.69027027 164.605428,7.69027027 C158.933887,7.69027027 154.676077,12.9338378 154.676077,20.7703784 C154.676077,28.2855676 158.686817,33.6565676 163.927369,33.6565676 C165.594818,33.6565676 166.768126,33.3551622 167.686607,32.7324054 L167.686607,25.8266757 L162.44827,25.8266757 L162.44827,19.1658378 L175.338036,19.1658378 L175.338036,37.1725946 C172.809718,39.5173514 168.926391,41 163.560641,41" id="Fill-9" fill="#000000" mask="url(#mask-2)"></path>
                    <path d="M16.34432,24.9246757 L21.5848727,24.9246757 L21.5848727,32.7324054 C20.6652831,33.3551622 19.4919754,33.6565676 17.822311,33.6565676 C12.5839741,33.6565676 8.57434195,28.2855676 8.57434195,20.7703784 C8.57434195,12.9338378 12.9961275,7.47751351 18.6687766,7.47751351 C21.4485962,7.47751351 23.4783409,7.82102703 24.8156236,8.16010811 L24.8156236,0.910864865 C22.5521037,0.34572973 20.7805088,0.166216216 17.457799,0.166216216 C8.57434195,0.166216216 0.129628894,7.38443243 0.129628894,20.5808919 C0.129628894,33.7208378 8.39042403,41 17.457799,41 C22.8235488,41 26.7068759,39.5173514 29.2340854,37.1725946 L29.2340854,18.2638378 L16.34432,18.2638378 L16.34432,24.9246757" id="Fill-10" fill="#D11564" mask="url(#mask-2)"></path>
                </g>
                <g id="Group-11" transform="translate(77.555748, 0.000000)">
                    <mask id="mask-4" fill="white">
                        <use xlink:href="#path-3"></use>
                    </mask>
                    <g id="Clip-8"></g>
                    <polygon id="Fill-7" fill="#000000" mask="url(#mask-4)" points="133.501141 40.2575676 142.010115 40.2575676 142.010115 0.905324324 133.501141 0.905324324"></polygon>
                    <path d="M163.560641,41 C154.493267,41 146.232471,33.7208378 146.232471,20.5808919 C146.232471,7.38443243 154.676077,0.166216216 163.560641,0.166216216 C167.934786,0.166216216 171.391556,1.45937838 173.367012,3.06502703 L172.745458,10.7131892 C170.833155,9.04548649 167.999046,7.69027027 164.605428,7.69027027 C158.933887,7.69027027 154.676077,12.9338378 154.676077,20.7703784 C154.676077,28.2855676 158.686817,33.6565676 163.927369,33.6565676 C165.594818,33.6565676 166.768126,33.3551622 167.686607,32.7324054 L167.686607,25.8266757 L162.44827,25.8266757 L162.44827,19.1658378 L175.338036,19.1658378 L175.338036,37.1725946 C172.809718,39.5173514 168.926391,41 163.560641,41" id="Fill-9" fill="#000000" mask="url(#mask-4)"></path>
                    <path d="M16.34432,24.9246757 L21.5848727,24.9246757 L21.5848727,32.7324054 C20.6652831,33.3551622 19.4919754,33.6565676 17.822311,33.6565676 C12.5839741,33.6565676 8.57434195,28.2855676 8.57434195,20.7703784 C8.57434195,12.9338378 12.9961275,7.47751351 18.6687766,7.47751351 C21.4485962,7.47751351 23.4783409,7.82102703 24.8156236,8.16010811 L24.8156236,0.910864865 C22.5521037,0.34572973 20.7805088,0.166216216 17.457799,0.166216216 C8.57434195,0.166216216 0.129628894,7.38443243 0.129628894,20.5808919 C0.129628894,33.7208378 8.39042403,41 17.457799,41 C22.8235488,41 26.7068759,39.5173514 29.2340854,37.1725946 L29.2340854,18.2638378 L16.34432,18.2638378 L16.34432,24.9246757" id="Fill-10" fill="#D11564" mask="url(#mask-4)"></path>
                </g>
                <path d="M122.446123,23.8863784 C123.111995,23.6137838 123.806673,23.2891081 124.51243,22.8890811 C127.288926,21.351027 129.4483,17.270973 129.4483,12.9515676 C129.4483,5.85967568 124.328512,0.905324324 118.347856,0.905324324 L102.910938,0.905324324 L106.131718,7.69027027 L117.235485,7.69027027 C119.210941,7.69027027 121.181965,9.74359459 121.181965,12.9515676 C121.181965,16.1595405 119.210941,18.2660541 117.235485,18.2660541 L110.798358,18.2660541 L110.84046,18.3258919 L110.817193,18.3258919 L121.118812,40.2575676 L130.365673,40.2575676 L122.446123,23.8863784" id="Fill-12" fill="#D11564"></path>
            </g>
        </g>
    </g>
</svg>